<svg xmlns="http://www.w3.org/2000/svg" width="31.999" height="28.001" viewBox="0 0 31.999 28.001">
  <path id="Shape_1" data-name="Shape 1" d="M1443.448,5707.718l-7.117-5.163a.543.543,0,0,0-.659.019l-3.945,3.215a1.471,1.471,0,0,1-2.335-.7l-2.647-8.506-6.787-2.531a1.47,1.47,0,0,1-.014-2.75L1449,5680.1a1.472,1.472,0,0,1,1.971,1.672l-5.214,25.059a1.471,1.471,0,0,1-2.306.89Zm-6.368-6.194,7.117,5.164a.2.2,0,0,0,.309-.119l5.213-25.059a.2.2,0,0,0-.262-.224h0l-29.054,11.2a.2.2,0,0,0,0,.368l7.078,2.64a.636.636,0,0,1,.387.408l2.74,8.8a.2.2,0,0,0,.311.094l3.947-3.214a1.817,1.817,0,0,1,2.213-.063Zm6.263,3.16a.636.636,0,0,1-.489-.756l1.467-6.749a.637.637,0,0,1,1.245.271l-1.466,6.747a.639.639,0,0,1-.623.5A.632.632,0,0,1,1443.344,5704.684Zm-12.858-3.757-1.424-5a1.968,1.968,0,0,1,.858-2.206l13.159-8.1a.866.866,0,0,1,1.044,1.372l-10.86,10.086a1.619,1.619,0,0,0-.5.964l-.37,2.739a.967.967,0,0,1-.9.844.61.61,0,0,1-.073,0A.966.966,0,0,1,1430.485,5700.927Zm.1-6.117a.689.689,0,0,0-.3.772l1.033,3.627.179-1.33a2.9,2.9,0,0,1,.9-1.726l7.834-7.276Zm14.761.641a.637.637,0,0,1-.487-.758l.1-.446a.637.637,0,0,1,1.245.27l-.1.447a.639.639,0,0,1-.623.5A.654.654,0,0,1,1445.349,5695.45Z" transform="translate(-1419.001 -5680)" fill="#fff"/>
</svg>
