<svg xmlns="http://www.w3.org/2000/svg" width="184.914" height="191.781" viewBox="0 0 184.914 191.781">
  <g id="Vector_Smart_Object_copy_3" data-name="Vector Smart Object copy 3" transform="translate(-850.036 -464.727)" opacity="0.102">
    <g id="Vector_Smart_Object_copy_3-2" data-name="Vector Smart Object copy 3">
      <g id="Group_62" data-name="Group 62">
        <g id="Group_51" data-name="Group 51">
          <ellipse id="Ellipse_225" data-name="Ellipse 225" cx="3.563" cy="3.572" rx="3.563" ry="3.572" transform="translate(855.088 464.727) rotate(45)" fill="#f9e4e4"/>
          <path id="Path_307" data-name="Path 307" d="M858.651,486.3a3.563,3.563,0,1,1-3.563-3.572A3.569,3.569,0,0,1,858.651,486.3Z" fill="#f9e4e4"/>
          <ellipse id="Ellipse_226" data-name="Ellipse 226" cx="3.563" cy="3.572" rx="3.563" ry="3.572" transform="translate(855.088 497.761) rotate(45)" fill="#f9e4e4"/>
          <ellipse id="Ellipse_227" data-name="Ellipse 227" cx="3.563" cy="3.572" rx="3.563" ry="3.572" transform="translate(855.088 514.279) rotate(45)" fill="#f9e4e4"/>
          <path id="Path_308" data-name="Path 308" d="M858.651,535.847a3.563,3.563,0,1,1-3.563-3.572A3.57,3.57,0,0,1,858.651,535.847Z" fill="#f9e4e4"/>
          <path id="Path_309" data-name="Path 309" d="M858.65,552.364a3.563,3.563,0,1,1-3.563-3.572A3.565,3.565,0,0,1,858.65,552.364Z" fill="#f9e4e4"/>
          <ellipse id="Ellipse_228" data-name="Ellipse 228" cx="3.563" cy="3.572" rx="3.563" ry="3.572" transform="translate(855.088 563.831) rotate(45)" fill="#f9e4e4"/>
          <path id="Path_310" data-name="Path 310" d="M858.651,585.4a3.563,3.563,0,1,1-3.563-3.572A3.569,3.569,0,0,1,858.651,585.4Z" fill="#f9e4e4"/>
          <path id="Path_311" data-name="Path 311" d="M858.65,601.916a3.563,3.563,0,1,1-3.563-3.572A3.565,3.565,0,0,1,858.65,601.916Z" fill="#f9e4e4"/>
          <ellipse id="Ellipse_229" data-name="Ellipse 229" cx="3.563" cy="3.572" rx="3.563" ry="3.572" transform="translate(855.088 613.382) rotate(45)" fill="#f9e4e4"/>
          <path id="Path_312" data-name="Path 312" d="M858.651,634.951a3.563,3.563,0,1,1-3.563-3.572A3.57,3.57,0,0,1,858.651,634.951Z" fill="#f9e4e4"/>
          <path id="Path_313" data-name="Path 313" d="M858.65,651.468a3.563,3.563,0,1,1-3.563-3.572A3.565,3.565,0,0,1,858.65,651.468Z" fill="#f9e4e4"/>
        </g>
        <g id="Group_52" data-name="Group 52">
          <path id="Path_314" data-name="Path 314" d="M876.133,469.777a3.563,3.563,0,1,1-3.563-3.572A3.569,3.569,0,0,1,876.133,469.777Z" fill="#f9e4e4"/>
          <ellipse id="Ellipse_230" data-name="Ellipse 230" cx="3.563" cy="3.572" rx="3.563" ry="3.572" transform="translate(872.57 481.244) rotate(45)" fill="#f9e4e4"/>
          <path id="Path_315" data-name="Path 315" d="M876.133,502.814a3.563,3.563,0,1,1-3.563-3.572A3.568,3.568,0,0,1,876.133,502.814Z" fill="#f9e4e4"/>
          <path id="Path_316" data-name="Path 316" d="M876.133,519.329a3.563,3.563,0,1,1-3.563-3.572A3.57,3.57,0,0,1,876.133,519.329Z" fill="#f9e4e4"/>
          <path id="Path_317" data-name="Path 317" d="M876.133,535.847a3.563,3.563,0,1,1-3.563-3.572A3.568,3.568,0,0,1,876.133,535.847Z" fill="#f9e4e4"/>
          <ellipse id="Ellipse_231" data-name="Ellipse 231" cx="3.563" cy="3.572" rx="3.563" ry="3.572" transform="translate(872.57 547.313) rotate(45)" fill="#f9e4e4"/>
          <ellipse id="Ellipse_232" data-name="Ellipse 232" cx="3.563" cy="3.572" rx="3.563" ry="3.572" transform="translate(872.57 563.831) rotate(45)" fill="#f9e4e4"/>
          <path id="Path_318" data-name="Path 318" d="M876.133,585.4a3.563,3.563,0,1,1-3.563-3.572A3.568,3.568,0,0,1,876.133,585.4Z" fill="#f9e4e4"/>
          <path id="Path_319" data-name="Path 319" d="M876.133,601.917a3.563,3.563,0,1,1-3.563-3.572A3.568,3.568,0,0,1,876.133,601.917Z" fill="#f9e4e4"/>
          <ellipse id="Ellipse_233" data-name="Ellipse 233" cx="3.563" cy="3.572" rx="3.563" ry="3.572" transform="translate(872.57 613.383) rotate(45)" fill="#f9e4e4"/>
          <path id="Path_320" data-name="Path 320" d="M876.133,634.951a3.563,3.563,0,1,1-3.563-3.572A3.568,3.568,0,0,1,876.133,634.951Z" fill="#f9e4e4"/>
          <path id="Path_321" data-name="Path 321" d="M876.133,651.469a3.563,3.563,0,1,1-3.563-3.572A3.568,3.568,0,0,1,876.133,651.469Z" fill="#f9e4e4"/>
        </g>
        <g id="Group_53" data-name="Group 53">
          <path id="Path_322" data-name="Path 322" d="M893.616,469.779a3.563,3.563,0,1,1-3.563-3.572A3.568,3.568,0,0,1,893.616,469.779Z" fill="#f9e4e4"/>
          <ellipse id="Ellipse_234" data-name="Ellipse 234" cx="3.563" cy="3.572" rx="3.563" ry="3.572" transform="translate(890.053 481.244) rotate(45)" fill="#f9e4e4"/>
          <path id="Path_323" data-name="Path 323" d="M893.616,502.812a3.563,3.563,0,1,1-3.563-3.572A3.569,3.569,0,0,1,893.616,502.812Z" fill="#f9e4e4"/>
          <ellipse id="Ellipse_235" data-name="Ellipse 235" cx="3.563" cy="3.572" rx="3.563" ry="3.572" transform="translate(890.053 514.279) rotate(45)" fill="#f9e4e4"/>
          <ellipse id="Ellipse_236" data-name="Ellipse 236" cx="3.563" cy="3.572" rx="3.563" ry="3.572" transform="translate(890.053 530.796) rotate(45)" fill="#f9e4e4"/>
          <path id="Path_324" data-name="Path 324" d="M893.616,552.364a3.563,3.563,0,1,1-3.563-3.572A3.57,3.57,0,0,1,893.616,552.364Z" fill="#f9e4e4"/>
          <path id="Path_325" data-name="Path 325" d="M893.616,568.882a3.563,3.563,0,1,1-3.563-3.572A3.568,3.568,0,0,1,893.616,568.882Z" fill="#f9e4e4"/>
          <ellipse id="Ellipse_237" data-name="Ellipse 237" cx="3.563" cy="3.572" rx="3.563" ry="3.572" transform="translate(890.053 580.348) rotate(45)" fill="#f9e4e4"/>
          <ellipse id="Ellipse_238" data-name="Ellipse 238" cx="3.563" cy="3.572" rx="3.563" ry="3.572" transform="translate(890.053 596.865) rotate(45)" fill="#f9e4e4"/>
          <path id="Path_326" data-name="Path 326" d="M893.616,618.434a3.563,3.563,0,1,1-3.563-3.572A3.568,3.568,0,0,1,893.616,618.434Z" fill="#f9e4e4"/>
          <ellipse id="Ellipse_239" data-name="Ellipse 239" cx="3.563" cy="3.572" rx="3.563" ry="3.572" transform="translate(890.053 629.9) rotate(45)" fill="#f9e4e4"/>
          <ellipse id="Ellipse_240" data-name="Ellipse 240" cx="3.563" cy="3.572" rx="3.563" ry="3.572" transform="translate(890.053 646.417) rotate(45)" fill="#f9e4e4"/>
        </g>
        <g id="Group_54" data-name="Group 54">
          <path id="Path_327" data-name="Path 327" d="M911.1,469.779a3.563,3.563,0,1,1-3.563-3.572A3.567,3.567,0,0,1,911.1,469.779Z" fill="#f9e4e4"/>
          <ellipse id="Ellipse_241" data-name="Ellipse 241" cx="3.563" cy="3.572" rx="3.563" ry="3.572" transform="translate(907.535 481.244) rotate(45)" fill="#f9e4e4"/>
          <path id="Path_328" data-name="Path 328" d="M911.1,502.812a3.563,3.563,0,1,1-3.563-3.572A3.568,3.568,0,0,1,911.1,502.812Z" fill="#f9e4e4"/>
          <path id="Path_329" data-name="Path 329" d="M911.1,519.331a3.563,3.563,0,1,1-3.563-3.572A3.568,3.568,0,0,1,911.1,519.331Z" fill="#f9e4e4"/>
          <ellipse id="Ellipse_242" data-name="Ellipse 242" cx="3.563" cy="3.572" rx="3.563" ry="3.572" transform="translate(907.535 530.796) rotate(45)" fill="#f9e4e4"/>
          <ellipse id="Ellipse_243" data-name="Ellipse 243" cx="3.563" cy="3.572" rx="3.563" ry="3.572" transform="translate(907.535 547.313) rotate(45)" fill="#f9e4e4"/>
          <path id="Path_330" data-name="Path 330" d="M911.1,568.882a3.563,3.563,0,1,1-3.563-3.572A3.568,3.568,0,0,1,911.1,568.882Z" fill="#f9e4e4"/>
          <ellipse id="Ellipse_244" data-name="Ellipse 244" cx="3.563" cy="3.572" rx="3.563" ry="3.572" transform="translate(907.535 580.348) rotate(45)" fill="#f9e4e4"/>
          <ellipse id="Ellipse_245" data-name="Ellipse 245" cx="3.563" cy="3.572" rx="3.563" ry="3.572" transform="translate(907.535 596.865) rotate(45)" fill="#f9e4e4"/>
          <path id="Path_331" data-name="Path 331" d="M911.1,618.434a3.563,3.563,0,1,1-3.563-3.572A3.568,3.568,0,0,1,911.1,618.434Z" fill="#f9e4e4"/>
          <ellipse id="Ellipse_246" data-name="Ellipse 246" cx="3.563" cy="3.572" rx="3.563" ry="3.572" transform="translate(907.535 629.9) rotate(45)" fill="#f9e4e4"/>
          <ellipse id="Ellipse_247" data-name="Ellipse 247" cx="3.563" cy="3.572" rx="3.563" ry="3.572" transform="translate(907.535 646.417) rotate(45)" fill="#f9e4e4"/>
        </g>
        <g id="Group_55" data-name="Group 55">
          <path id="Path_332" data-name="Path 332" d="M928.579,469.779a3.563,3.563,0,1,1-3.563-3.572A3.568,3.568,0,0,1,928.579,469.779Z" fill="#f9e4e4"/>
          <ellipse id="Ellipse_248" data-name="Ellipse 248" cx="3.563" cy="3.572" rx="3.563" ry="3.572" transform="translate(925.018 481.244) rotate(45)" fill="#f9e4e4"/>
          <ellipse id="Ellipse_249" data-name="Ellipse 249" cx="3.563" cy="3.572" rx="3.563" ry="3.572" transform="translate(925.018 497.761) rotate(45)" fill="#f9e4e4"/>
          <path id="Path_333" data-name="Path 333" d="M928.579,519.33a3.563,3.563,0,1,1-3.563-3.572A3.568,3.568,0,0,1,928.579,519.33Z" fill="#f9e4e4"/>
          <path id="Path_334" data-name="Path 334" d="M928.581,535.847a3.563,3.563,0,1,1-3.563-3.572A3.568,3.568,0,0,1,928.581,535.847Z" fill="#f9e4e4"/>
          <path id="Path_335" data-name="Path 335" d="M928.581,552.365a3.563,3.563,0,1,1-3.564-3.573A3.568,3.568,0,0,1,928.581,552.365Z" fill="#f9e4e4"/>
          <path id="Path_336" data-name="Path 336" d="M928.579,568.882a3.563,3.563,0,1,1-3.563-3.572A3.568,3.568,0,0,1,928.579,568.882Z" fill="#f9e4e4"/>
          <path id="Path_337" data-name="Path 337" d="M928.581,585.4a3.563,3.563,0,1,1-3.563-3.572A3.568,3.568,0,0,1,928.581,585.4Z" fill="#f9e4e4"/>
          <path id="Path_338" data-name="Path 338" d="M928.581,601.917a3.563,3.563,0,1,1-3.564-3.573A3.567,3.567,0,0,1,928.581,601.917Z" fill="#f9e4e4"/>
          <ellipse id="Ellipse_250" data-name="Ellipse 250" cx="3.563" cy="3.572" rx="3.563" ry="3.572" transform="translate(925.018 613.383) rotate(45)" fill="#f9e4e4"/>
          <path id="Path_339" data-name="Path 339" d="M928.581,634.951a3.563,3.563,0,1,1-3.563-3.572A3.568,3.568,0,0,1,928.581,634.951Z" fill="#f9e4e4"/>
          <path id="Path_340" data-name="Path 340" d="M928.581,651.469a3.563,3.563,0,1,1-3.564-3.573A3.568,3.568,0,0,1,928.581,651.469Z" fill="#f9e4e4"/>
        </g>
        <g id="Group_56" data-name="Group 56">
          <ellipse id="Ellipse_251" data-name="Ellipse 251" cx="3.563" cy="3.572" rx="3.563" ry="3.572" transform="translate(942.5 464.727) rotate(45)" fill="#f9e4e4"/>
          <path id="Path_341" data-name="Path 341" d="M946.062,486.3a3.563,3.563,0,1,1-3.563-3.572A3.568,3.568,0,0,1,946.062,486.3Z" fill="#f9e4e4"/>
          <path id="Path_342" data-name="Path 342" d="M946.062,502.814a3.563,3.563,0,1,1-3.563-3.572A3.567,3.567,0,0,1,946.062,502.814Z" fill="#f9e4e4"/>
          <ellipse id="Ellipse_252" data-name="Ellipse 252" cx="3.563" cy="3.572" rx="3.563" ry="3.572" transform="translate(942.5 514.279) rotate(45)" fill="#f9e4e4"/>
          <path id="Path_343" data-name="Path 343" d="M946.062,535.847a3.563,3.563,0,1,1-3.563-3.572A3.568,3.568,0,0,1,946.062,535.847Z" fill="#f9e4e4"/>
          <path id="Path_344" data-name="Path 344" d="M946.062,552.365a3.563,3.563,0,1,1-3.563-3.572A3.568,3.568,0,0,1,946.062,552.365Z" fill="#f9e4e4"/>
          <ellipse id="Ellipse_253" data-name="Ellipse 253" cx="3.563" cy="3.572" rx="3.563" ry="3.572" transform="translate(942.5 563.831) rotate(45)" fill="#f9e4e4"/>
          <ellipse id="Ellipse_254" data-name="Ellipse 254" cx="3.563" cy="3.572" rx="3.563" ry="3.572" transform="translate(942.5 580.348) rotate(45)" fill="#f9e4e4"/>
          <path id="Path_345" data-name="Path 345" d="M946.062,601.917a3.563,3.563,0,1,1-3.563-3.572A3.568,3.568,0,0,1,946.062,601.917Z" fill="#f9e4e4"/>
          <ellipse id="Ellipse_255" data-name="Ellipse 255" cx="3.563" cy="3.572" rx="3.563" ry="3.572" transform="translate(942.5 613.383) rotate(45)" fill="#f9e4e4"/>
          <path id="Path_346" data-name="Path 346" d="M946.062,634.951a3.563,3.563,0,1,1-3.563-3.572A3.568,3.568,0,0,1,946.062,634.951Z" fill="#f9e4e4"/>
          <ellipse id="Ellipse_256" data-name="Ellipse 256" cx="3.563" cy="3.572" rx="3.563" ry="3.572" transform="translate(942.5 646.417) rotate(45)" fill="#f9e4e4"/>
        </g>
        <g id="Group_57" data-name="Group 57">
          <ellipse id="Ellipse_257" data-name="Ellipse 257" cx="3.563" cy="3.572" rx="3.563" ry="3.572" transform="translate(959.982 464.727) rotate(45)" fill="#f9e4e4"/>
          <path id="Path_347" data-name="Path 347" d="M963.545,486.3a3.563,3.563,0,1,1-3.564-3.573A3.568,3.568,0,0,1,963.545,486.3Z" fill="#f9e4e4"/>
          <ellipse id="Ellipse_258" data-name="Ellipse 258" cx="3.563" cy="3.572" rx="3.563" ry="3.572" transform="translate(959.982 497.761) rotate(45)" fill="#f9e4e4"/>
          <ellipse id="Ellipse_259" data-name="Ellipse 259" cx="3.563" cy="3.572" rx="3.563" ry="3.572" transform="translate(959.982 514.279) rotate(45)" fill="#f9e4e4"/>
          <path id="Path_348" data-name="Path 348" d="M963.545,535.849a3.563,3.563,0,1,1-3.564-3.573A3.568,3.568,0,0,1,963.545,535.849Z" fill="#f9e4e4"/>
          <path id="Path_349" data-name="Path 349" d="M963.545,552.364a3.563,3.563,0,1,1-3.563-3.572A3.568,3.568,0,0,1,963.545,552.364Z" fill="#f9e4e4"/>
          <ellipse id="Ellipse_260" data-name="Ellipse 260" cx="3.563" cy="3.572" rx="3.563" ry="3.572" transform="translate(959.982 563.831) rotate(45)" fill="#f9e4e4"/>
          <path id="Path_350" data-name="Path 350" d="M963.545,585.4a3.563,3.563,0,1,1-3.564-3.573A3.567,3.567,0,0,1,963.545,585.4Z" fill="#f9e4e4"/>
          <path id="Path_351" data-name="Path 351" d="M963.545,601.916a3.563,3.563,0,1,1-3.563-3.572A3.568,3.568,0,0,1,963.545,601.916Z" fill="#f9e4e4"/>
          <ellipse id="Ellipse_261" data-name="Ellipse 261" cx="3.563" cy="3.572" rx="3.563" ry="3.572" transform="translate(959.982 613.383) rotate(45)" fill="#f9e4e4"/>
          <path id="Path_352" data-name="Path 352" d="M963.545,634.952a3.563,3.563,0,1,1-3.564-3.573A3.568,3.568,0,0,1,963.545,634.952Z" fill="#f9e4e4"/>
          <path id="Path_353" data-name="Path 353" d="M963.545,651.468a3.563,3.563,0,1,1-3.563-3.572A3.567,3.567,0,0,1,963.545,651.468Z" fill="#f9e4e4"/>
        </g>
        <g id="Group_58" data-name="Group 58">
          <path id="Path_354" data-name="Path 354" d="M981.027,469.779a3.563,3.563,0,1,1-3.563-3.572A3.568,3.568,0,0,1,981.027,469.779Z" fill="#f9e4e4"/>
          <path id="Path_355" data-name="Path 355" d="M981.028,486.3a3.563,3.563,0,1,1-3.563-3.572A3.568,3.568,0,0,1,981.028,486.3Z" fill="#f9e4e4"/>
          <path id="Path_356" data-name="Path 356" d="M981.028,502.814a3.563,3.563,0,1,1-3.564-3.573A3.568,3.568,0,0,1,981.028,502.814Z" fill="#f9e4e4"/>
          <path id="Path_357" data-name="Path 357" d="M981.027,519.33a3.563,3.563,0,1,1-3.563-3.572A3.568,3.568,0,0,1,981.027,519.33Z" fill="#f9e4e4"/>
          <path id="Path_358" data-name="Path 358" d="M981.028,535.847a3.563,3.563,0,1,1-3.563-3.572A3.568,3.568,0,0,1,981.028,535.847Z" fill="#f9e4e4"/>
          <path id="Path_359" data-name="Path 359" d="M981.028,552.365a3.563,3.563,0,1,1-3.564-3.573A3.568,3.568,0,0,1,981.028,552.365Z" fill="#f9e4e4"/>
          <ellipse id="Ellipse_262" data-name="Ellipse 262" cx="3.563" cy="3.572" rx="3.563" ry="3.572" transform="translate(977.465 563.831) rotate(45)" fill="#f9e4e4"/>
          <path id="Path_360" data-name="Path 360" d="M981.028,585.4a3.563,3.563,0,1,1-3.563-3.572A3.568,3.568,0,0,1,981.028,585.4Z" fill="#f9e4e4"/>
          <ellipse id="Ellipse_263" data-name="Ellipse 263" cx="3.563" cy="3.572" rx="3.563" ry="3.572" transform="translate(977.465 596.865) rotate(45)" fill="#f9e4e4"/>
          <ellipse id="Ellipse_264" data-name="Ellipse 264" cx="3.563" cy="3.572" rx="3.563" ry="3.572" transform="translate(977.465 613.383) rotate(45)" fill="#f9e4e4"/>
          <ellipse id="Ellipse_265" data-name="Ellipse 265" cx="3.563" cy="3.572" rx="3.563" ry="3.572" transform="translate(977.465 629.9) rotate(45)" fill="#f9e4e4"/>
          <path id="Path_361" data-name="Path 361" d="M981.028,651.469a3.563,3.563,0,1,1-3.564-3.573A3.568,3.568,0,0,1,981.028,651.469Z" fill="#f9e4e4"/>
        </g>
        <g id="Group_59" data-name="Group 59">
          <ellipse id="Ellipse_266" data-name="Ellipse 266" cx="3.563" cy="3.572" rx="3.563" ry="3.572" transform="translate(994.947 464.727) rotate(45)" fill="#f9e4e4"/>
          <ellipse id="Ellipse_267" data-name="Ellipse 267" cx="3.563" cy="3.572" rx="3.563" ry="3.572" transform="translate(994.947 481.244) rotate(45)" fill="#f9e4e4"/>
          <path id="Path_362" data-name="Path 362" d="M998.51,502.813a3.563,3.563,0,1,1-3.563-3.572A3.568,3.568,0,0,1,998.51,502.813Z" fill="#f9e4e4"/>
          <path id="Path_363" data-name="Path 363" d="M998.511,519.33a3.563,3.563,0,1,1-3.564-3.573A3.568,3.568,0,0,1,998.511,519.33Z" fill="#f9e4e4"/>
          <ellipse id="Ellipse_268" data-name="Ellipse 268" cx="3.563" cy="3.572" rx="3.563" ry="3.572" transform="translate(994.947 530.796) rotate(45)" fill="#f9e4e4"/>
          <path id="Path_364" data-name="Path 364" d="M998.51,552.365a3.563,3.563,0,1,1-3.563-3.572A3.568,3.568,0,0,1,998.51,552.365Z" fill="#f9e4e4"/>
          <path id="Path_365" data-name="Path 365" d="M998.511,568.882a3.563,3.563,0,1,1-3.564-3.573A3.568,3.568,0,0,1,998.511,568.882Z" fill="#f9e4e4"/>
          <ellipse id="Ellipse_269" data-name="Ellipse 269" cx="3.563" cy="3.572" rx="3.563" ry="3.572" transform="translate(994.947 580.348) rotate(45)" fill="#f9e4e4"/>
          <path id="Path_366" data-name="Path 366" d="M998.51,601.917a3.563,3.563,0,1,1-3.563-3.572A3.568,3.568,0,0,1,998.51,601.917Z" fill="#f9e4e4"/>
          <path id="Path_367" data-name="Path 367" d="M998.511,618.434a3.563,3.563,0,1,1-3.564-3.573A3.568,3.568,0,0,1,998.511,618.434Z" fill="#f9e4e4"/>
          <path id="Path_368" data-name="Path 368" d="M998.51,634.951a3.563,3.563,0,1,1-3.563-3.572A3.568,3.568,0,0,1,998.51,634.951Z" fill="#f9e4e4"/>
          <ellipse id="Ellipse_270" data-name="Ellipse 270" cx="3.563" cy="3.572" rx="3.563" ry="3.572" transform="translate(994.947 646.417) rotate(45)" fill="#f9e4e4"/>
        </g>
        <g id="Group_60" data-name="Group 60">
          <path id="Path_369" data-name="Path 369" d="M1015.992,469.779a3.563,3.563,0,1,1-3.563-3.572A3.568,3.568,0,0,1,1015.992,469.779Z" fill="#f9e4e4"/>
          <ellipse id="Ellipse_271" data-name="Ellipse 271" cx="3.563" cy="3.572" rx="3.563" ry="3.572" transform="translate(1012.43 481.244) rotate(45)" fill="#f9e4e4"/>
          <path id="Path_370" data-name="Path 370" d="M1015.992,502.812a3.563,3.563,0,1,1-3.563-3.572A3.568,3.568,0,0,1,1015.992,502.812Z" fill="#f9e4e4"/>
          <path id="Path_371" data-name="Path 371" d="M1015.992,519.331a3.563,3.563,0,1,1-3.563-3.572A3.568,3.568,0,0,1,1015.992,519.331Z" fill="#f9e4e4"/>
          <ellipse id="Ellipse_272" data-name="Ellipse 272" cx="3.563" cy="3.572" rx="3.563" ry="3.572" transform="translate(1012.43 530.796) rotate(45)" fill="#f9e4e4"/>
          <ellipse id="Ellipse_273" data-name="Ellipse 273" cx="3.563" cy="3.572" rx="3.563" ry="3.572" transform="translate(1012.43 547.313) rotate(45)" fill="#f9e4e4"/>
          <path id="Path_372" data-name="Path 372" d="M1015.992,568.882a3.563,3.563,0,1,1-3.563-3.572A3.568,3.568,0,0,1,1015.992,568.882Z" fill="#f9e4e4"/>
          <ellipse id="Ellipse_274" data-name="Ellipse 274" cx="3.563" cy="3.572" rx="3.563" ry="3.572" transform="translate(1012.43 580.348) rotate(45)" fill="#f9e4e4"/>
          <ellipse id="Ellipse_275" data-name="Ellipse 275" cx="3.563" cy="3.572" rx="3.563" ry="3.572" transform="translate(1012.43 596.865) rotate(45)" fill="#f9e4e4"/>
          <path id="Path_373" data-name="Path 373" d="M1015.992,618.434a3.563,3.563,0,1,1-3.563-3.572A3.568,3.568,0,0,1,1015.992,618.434Z" fill="#f9e4e4"/>
          <ellipse id="Ellipse_276" data-name="Ellipse 276" cx="3.563" cy="3.572" rx="3.563" ry="3.572" transform="translate(1012.43 629.9) rotate(45)" fill="#f9e4e4"/>
          <ellipse id="Ellipse_277" data-name="Ellipse 277" cx="3.563" cy="3.572" rx="3.563" ry="3.572" transform="translate(1012.43 646.417) rotate(45)" fill="#f9e4e4"/>
        </g>
        <g id="Group_61" data-name="Group 61">
          <ellipse id="Ellipse_278" data-name="Ellipse 278" cx="3.563" cy="3.572" rx="3.563" ry="3.572" transform="translate(1029.912 464.727) rotate(45)" fill="#f9e4e4"/>
          <ellipse id="Ellipse_279" data-name="Ellipse 279" cx="3.563" cy="3.572" rx="3.563" ry="3.572" transform="translate(1029.912 481.244) rotate(45)" fill="#f9e4e4"/>
          <path id="Path_374" data-name="Path 374" d="M1033.475,502.813a3.563,3.563,0,1,1-3.564-3.573A3.567,3.567,0,0,1,1033.475,502.813Z" fill="#f9e4e4"/>
          <path id="Path_375" data-name="Path 375" d="M1033.474,519.33a3.563,3.563,0,1,1-3.562-3.572A3.568,3.568,0,0,1,1033.474,519.33Z" fill="#f9e4e4"/>
          <ellipse id="Ellipse_280" data-name="Ellipse 280" cx="3.563" cy="3.572" rx="3.563" ry="3.572" transform="translate(1029.912 530.796) rotate(45)" fill="#f9e4e4"/>
          <path id="Path_376" data-name="Path 376" d="M1033.475,552.365a3.563,3.563,0,1,1-3.564-3.573A3.568,3.568,0,0,1,1033.475,552.365Z" fill="#f9e4e4"/>
          <path id="Path_377" data-name="Path 377" d="M1033.474,568.882a3.563,3.563,0,1,1-3.562-3.572A3.568,3.568,0,0,1,1033.474,568.882Z" fill="#f9e4e4"/>
          <path id="Path_378" data-name="Path 378" d="M1033.475,585.4a3.563,3.563,0,1,1-3.563-3.572A3.568,3.568,0,0,1,1033.475,585.4Z" fill="#f9e4e4"/>
          <path id="Path_379" data-name="Path 379" d="M1033.475,601.917a3.563,3.563,0,1,1-3.564-3.573A3.568,3.568,0,0,1,1033.475,601.917Z" fill="#f9e4e4"/>
          <path id="Path_380" data-name="Path 380" d="M1033.474,618.434a3.563,3.563,0,1,1-3.563-3.572A3.568,3.568,0,0,1,1033.474,618.434Z" fill="#f9e4e4"/>
          <path id="Path_381" data-name="Path 381" d="M1033.475,634.951a3.563,3.563,0,1,1-3.563-3.572A3.568,3.568,0,0,1,1033.475,634.951Z" fill="#f9e4e4"/>
          <path id="Path_382" data-name="Path 382" d="M1033.475,651.469a3.563,3.563,0,1,1-3.564-3.573A3.568,3.568,0,0,1,1033.475,651.469Z" fill="#f9e4e4"/>
        </g>
      </g>
    </g>
    <path id="Color_Overlay" data-name="Color Overlay" d="M1026.349,651.469a3.563,3.563,0,1,1,3.563,3.573A3.567,3.567,0,0,1,1026.349,651.469Zm-52.448,0a3.563,3.563,0,1,1,3.564,3.573A3.567,3.567,0,0,1,973.9,651.469Zm-52.448,0a3.563,3.563,0,1,1,3.564,3.573A3.568,3.568,0,0,1,921.454,651.469Zm-52.447,0a3.563,3.563,0,1,1,3.563,3.572A3.566,3.566,0,0,1,869.008,651.47Zm87.412,0a3.563,3.563,0,1,1,3.562,3.571A3.567,3.567,0,0,1,956.42,651.469ZM855.087,655.04a3.572,3.572,0,1,1,3.563-3.571,3.567,3.567,0,0,1-3.563,3.571Zm154.81-1.052a3.567,3.567,0,1,1,2.517,1.042A3.567,3.567,0,0,1,1009.9,653.988Zm-17.482,0a3.567,3.567,0,1,1,2.517,1.042A3.567,3.567,0,0,1,992.415,653.988Zm-52.447,0a3.566,3.566,0,1,1,2.516,1.042A3.567,3.567,0,0,1,939.968,653.988Zm-34.965,0a3.566,3.566,0,1,1,2.516,1.042A3.567,3.567,0,0,1,905,653.988Zm-17.482,0a3.566,3.566,0,1,1,2.516,1.042A3.567,3.567,0,0,1,887.521,653.988Zm68.9-19.037a3.564,3.564,0,1,1,3.564,3.573A3.568,3.568,0,0,1,956.418,634.951Zm-104.893,0a3.563,3.563,0,1,1,3.562,3.571A3.567,3.567,0,0,1,851.525,634.953Zm174.825,0a3.563,3.563,0,1,1,3.562,3.572A3.568,3.568,0,0,1,1026.35,634.951Zm-34.966,0a3.563,3.563,0,1,1,3.563,3.572A3.568,3.568,0,0,1,991.384,634.951Zm-52.448,0a3.563,3.563,0,1,1,3.563,3.572A3.568,3.568,0,0,1,938.937,634.951Zm-17.482,0a3.563,3.563,0,1,1,3.563,3.572A3.568,3.568,0,0,1,921.455,634.951Zm-52.448,0a3.563,3.563,0,1,1,3.563,3.572A3.568,3.568,0,0,1,869.008,634.951Zm140.89,2.52a3.569,3.569,0,1,1,2.516,1.041A3.568,3.568,0,0,1,1009.9,637.471Zm-34.965,0a3.569,3.569,0,1,1,2.516,1.041A3.568,3.568,0,0,1,974.932,637.471Zm-69.929,0a3.568,3.568,0,1,1,2.516,1.041A3.568,3.568,0,0,1,905,637.471Zm-17.482,0a3.567,3.567,0,1,1,2.516,1.041A3.568,3.568,0,0,1,887.521,637.471Zm138.829-19.037a3.563,3.563,0,1,1,3.562,3.572A3.567,3.567,0,0,1,1026.349,618.434Zm-17.482,0a3.562,3.562,0,1,1,3.562,3.572A3.567,3.567,0,0,1,1008.868,618.434Zm-17.483,0a3.563,3.563,0,1,1,3.564,3.573A3.568,3.568,0,0,1,991.384,618.433Zm-87.412,0a3.563,3.563,0,1,1,3.562,3.572A3.567,3.567,0,0,1,903.973,618.434Zm-17.482,0a3.563,3.563,0,1,1,3.562,3.572A3.563,3.563,0,0,1,886.491,618.434Zm88.442,2.519A3.565,3.565,0,1,1,977.45,622,3.567,3.567,0,0,1,974.933,620.953Zm-17.483,0A3.567,3.567,0,1,1,959.967,622,3.567,3.567,0,0,1,957.45,620.953Zm-17.482,0A3.567,3.567,0,1,1,942.484,622,3.567,3.567,0,0,1,939.967,620.953Zm-17.482,0A3.566,3.566,0,1,1,925,622,3.567,3.567,0,0,1,922.486,620.953Zm-52.447,0A3.565,3.565,0,1,1,872.555,622,3.567,3.567,0,0,1,870.038,620.953Zm-17.483,0A3.567,3.567,0,1,1,855.073,622,3.568,3.568,0,0,1,852.556,620.953Zm173.794-19.037a3.563,3.563,0,1,1,3.563,3.573A3.567,3.567,0,0,1,1026.349,601.916Zm-34.965,0a3.563,3.563,0,1,1,3.563,3.572A3.568,3.568,0,0,1,991.384,601.917Zm-52.448,0a3.563,3.563,0,1,1,3.563,3.572A3.568,3.568,0,0,1,938.937,601.917Zm-17.482,0a3.563,3.563,0,1,1,3.564,3.573A3.568,3.568,0,0,1,921.454,601.916Zm-52.447,0a3.563,3.563,0,1,1,3.563,3.572A3.566,3.566,0,0,1,869.008,601.917Zm87.412,0a3.563,3.563,0,1,1,3.562,3.572A3.567,3.567,0,0,1,956.42,601.916Zm-101.333,3.572a3.572,3.572,0,1,1,3.563-3.572,3.568,3.568,0,0,1-3.563,3.572Zm154.81-1.053a3.567,3.567,0,1,1,2.517,1.042A3.567,3.567,0,0,1,1009.9,604.435Zm-34.965,0a3.568,3.568,0,1,1,2.516,1.041A3.568,3.568,0,0,1,974.932,604.436Zm-69.929,0a3.567,3.567,0,1,1,2.516,1.041A3.568,3.568,0,0,1,905,604.436Zm-17.482,0a3.567,3.567,0,1,1,2.516,1.041A3.568,3.568,0,0,1,887.521,604.436Zm68.9-19.037a3.564,3.564,0,1,1,3.564,3.573A3.568,3.568,0,0,1,956.418,585.4Zm-104.893,0a3.563,3.563,0,1,1,3.562,3.572A3.567,3.567,0,0,1,851.525,585.4Zm174.825,0a3.563,3.563,0,1,1,3.562,3.571A3.568,3.568,0,0,1,1026.35,585.4Zm-52.447,0a3.563,3.563,0,1,1,3.563,3.571A3.568,3.568,0,0,1,973.9,585.4Zm-52.448,0a3.563,3.563,0,1,1,3.563,3.571A3.568,3.568,0,0,1,921.455,585.4Zm-52.448,0a3.563,3.563,0,1,1,3.563,3.571A3.568,3.568,0,0,1,869.008,585.4Zm140.89,2.519a3.569,3.569,0,1,1,2.517,1.041A3.567,3.567,0,0,1,1009.9,587.919Zm-17.482,0a3.569,3.569,0,1,1,2.517,1.041A3.569,3.569,0,0,1,992.415,587.919Zm-52.447,0a3.568,3.568,0,1,1,2.516,1.041A3.568,3.568,0,0,1,939.968,587.919Zm-34.965,0a3.568,3.568,0,1,1,2.516,1.041A3.568,3.568,0,0,1,905,587.919Zm-17.482,0a3.568,3.568,0,1,1,2.516,1.041A3.568,3.568,0,0,1,887.521,587.919Zm138.829-19.036a3.563,3.563,0,1,1,3.562,3.571A3.567,3.567,0,0,1,1026.349,568.883Zm-17.482,0a3.563,3.563,0,1,1,3.562,3.571A3.567,3.567,0,0,1,1008.868,568.883Zm-17.483,0a3.563,3.563,0,1,1,3.564,3.573A3.568,3.568,0,0,1,991.384,568.881Zm-69.93,0a3.563,3.563,0,1,1,3.562,3.571A3.568,3.568,0,0,1,921.454,568.883Zm-17.482,0a3.563,3.563,0,1,1,3.562,3.571A3.567,3.567,0,0,1,903.973,568.883Zm-17.482,0a3.563,3.563,0,1,1,3.562,3.571A3.564,3.564,0,0,1,886.491,568.883ZM957.45,571.4a3.568,3.568,0,1,1,2.516,1.041A3.568,3.568,0,0,1,957.45,571.4Zm17.483,0a3.568,3.568,0,1,1,2.516,1.041A3.567,3.567,0,0,1,974.933,571.4Zm-34.966,0a3.569,3.569,0,1,1,2.517,1.041A3.567,3.567,0,0,1,939.967,571.4Zm-69.929,0a3.568,3.568,0,1,1,2.516,1.041A3.567,3.567,0,0,1,870.038,571.4Zm-17.483,0a3.569,3.569,0,1,1,2.517,1.041A3.567,3.567,0,0,1,852.556,571.4Zm173.794-19.037a3.563,3.563,0,1,1,3.563,3.573A3.568,3.568,0,0,1,1026.349,552.364Zm-34.965,0a3.563,3.563,0,1,1,3.563,3.572A3.568,3.568,0,0,1,991.384,552.365Zm-17.482,0a3.563,3.563,0,1,1,3.564,3.573A3.568,3.568,0,0,1,973.9,552.364Zm-34.965,0a3.563,3.563,0,1,1,3.563,3.572A3.568,3.568,0,0,1,938.937,552.365Zm-17.482,0a3.563,3.563,0,1,1,3.564,3.573A3.568,3.568,0,0,1,921.454,552.364Zm-34.965,0a3.564,3.564,0,1,1,3.563,3.572A3.571,3.571,0,0,1,886.489,552.365Zm69.931,0a3.563,3.563,0,1,1,3.562,3.572A3.568,3.568,0,0,1,956.42,552.364Zm-101.333,3.572a3.572,3.572,0,1,1,3.563-3.572,3.568,3.568,0,0,1-3.563,3.572Zm14.951-1.052a3.566,3.566,0,1,1,2.516,1.042A3.568,3.568,0,0,1,870.038,554.884Zm139.859,0a3.568,3.568,0,1,1,2.516,1.041A3.569,3.569,0,0,1,1009.9,554.884Zm-104.894,0a3.567,3.567,0,1,1,2.516,1.041A3.568,3.568,0,0,1,905,554.884Zm51.415-19.037a3.564,3.564,0,1,1,3.564,3.573A3.568,3.568,0,0,1,956.418,535.847Zm-104.893,0a3.563,3.563,0,1,1,3.562,3.572A3.567,3.567,0,0,1,851.525,535.848Zm122.378,0a3.563,3.563,0,1,1,3.563,3.572A3.568,3.568,0,0,1,973.9,535.847Zm-34.966,0a3.563,3.563,0,1,1,3.563,3.572A3.568,3.568,0,0,1,938.937,535.847Zm-17.482,0a3.563,3.563,0,1,1,3.563,3.572A3.568,3.568,0,0,1,921.455,535.847Zm-52.448,0a3.563,3.563,0,1,1,3.563,3.572A3.568,3.568,0,0,1,869.008,535.847Zm158.372,2.519a3.567,3.567,0,1,1,2.517,1.042A3.567,3.567,0,0,1,1027.38,538.367Zm-17.483,0a3.567,3.567,0,1,1,2.517,1.042A3.567,3.567,0,0,1,1009.9,538.367Zm-17.482,0a3.567,3.567,0,1,1,2.517,1.042A3.567,3.567,0,0,1,992.415,538.367Zm-87.412,0a3.566,3.566,0,1,1,2.516,1.042A3.567,3.567,0,0,1,905,538.367Zm-17.482,0a3.566,3.566,0,1,1,2.516,1.042A3.567,3.567,0,0,1,887.521,538.367Zm138.829-19.036a3.563,3.563,0,1,1,3.562,3.572A3.567,3.567,0,0,1,1026.349,519.331Zm-17.482,0a3.562,3.562,0,1,1,3.562,3.572A3.567,3.567,0,0,1,1008.868,519.331Zm-17.483,0a3.563,3.563,0,1,1,3.564,3.573A3.568,3.568,0,0,1,991.384,519.33Zm-17.482,0a3.563,3.563,0,1,1,3.562,3.572A3.567,3.567,0,0,1,973.9,519.331Zm-52.448,0a3.563,3.563,0,1,1,3.562,3.572A3.568,3.568,0,0,1,921.454,519.331Zm-17.482,0a3.563,3.563,0,1,1,3.562,3.572A3.567,3.567,0,0,1,903.973,519.331Zm-34.966,0a3.563,3.563,0,1,1,3.563,3.572A3.569,3.569,0,0,1,869.007,519.331Zm88.444,2.519a3.567,3.567,0,1,1,2.516,1.041A3.568,3.568,0,0,1,957.451,521.85Zm-17.483,0a3.568,3.568,0,1,1,2.516,1.041A3.569,3.569,0,0,1,939.967,521.85Zm-52.447,0a3.567,3.567,0,1,1,2.516,1.041A3.568,3.568,0,0,1,887.521,521.85Zm-34.965,0a3.568,3.568,0,1,1,2.516,1.041A3.568,3.568,0,0,1,852.556,521.85Zm173.794-19.038a3.563,3.563,0,1,1,3.563,3.573A3.567,3.567,0,0,1,1026.349,502.812Zm-34.965,0a3.563,3.563,0,1,1,3.563,3.571A3.568,3.568,0,0,1,991.384,502.814Zm-17.482,0a3.563,3.563,0,1,1,3.564,3.573A3.567,3.567,0,0,1,973.9,502.812Zm-34.965,0a3.563,3.563,0,1,1,3.563,3.571A3.569,3.569,0,0,1,938.937,502.814Zm-52.448,0a3.564,3.564,0,1,1,3.563,3.571A3.57,3.57,0,0,1,886.489,502.814Zm-17.482,0a3.563,3.563,0,1,1,3.563,3.571A3.566,3.566,0,0,1,869.008,502.814Zm139.86,0a3.562,3.562,0,1,1,3.562,3.572A3.567,3.567,0,0,1,1008.868,502.812Zm-104.9,0a3.563,3.563,0,1,1,3.562,3.572A3.567,3.567,0,0,1,903.973,502.812Zm53.477,2.52a3.569,3.569,0,1,1,2.517,1.041A3.567,3.567,0,0,1,957.45,505.332Zm-34.964,0A3.568,3.568,0,1,1,925,506.373,3.567,3.567,0,0,1,922.486,505.332Zm-69.93,0a3.569,3.569,0,1,1,2.517,1.041A3.567,3.567,0,0,1,852.556,505.332ZM956.418,486.3a3.564,3.564,0,1,1,3.564,3.573A3.568,3.568,0,0,1,956.418,486.3Zm-104.893,0a3.563,3.563,0,1,1,3.562,3.571A3.566,3.566,0,0,1,851.525,486.3Zm122.378,0a3.563,3.563,0,1,1,3.562,3.572A3.568,3.568,0,0,1,973.9,486.3Zm-34.966,0a3.563,3.563,0,1,1,3.563,3.572A3.568,3.568,0,0,1,938.937,486.3Zm70.961,2.52a3.568,3.568,0,1,1,2.516,1.041A3.568,3.568,0,0,1,1009.9,488.815Zm-17.482,0a3.568,3.568,0,1,1,2.516,1.041A3.568,3.568,0,0,1,992.415,488.815Zm-87.412,0a3.567,3.567,0,1,1,2.516,1.041A3.568,3.568,0,0,1,905,488.815Zm-17.482,0a3.567,3.567,0,1,1,2.516,1.041A3.568,3.568,0,0,1,887.521,488.815Zm139.859,0a3.569,3.569,0,1,1,2.517,1.041A3.567,3.567,0,0,1,1027.38,488.814Zm-104.894,0A3.568,3.568,0,1,1,925,489.856,3.567,3.567,0,0,1,922.486,488.814Zm-52.447,0a3.568,3.568,0,1,1,2.516,1.041A3.567,3.567,0,0,1,870.038,488.814Zm138.829-19.036a3.562,3.562,0,1,1,3.562,3.572A3.568,3.568,0,0,1,1008.868,469.778Zm-34.966,0a3.563,3.563,0,1,1,3.562,3.572A3.568,3.568,0,0,1,973.9,469.778Zm-52.448,0a3.563,3.563,0,1,1,3.562,3.572A3.568,3.568,0,0,1,921.454,469.778Zm-17.482,0a3.563,3.563,0,1,1,3.562,3.572A3.568,3.568,0,0,1,903.973,469.778Zm-17.482,0a3.563,3.563,0,1,1,3.562,3.572A3.564,3.564,0,0,1,886.491,469.778Zm-17.484,0a3.563,3.563,0,1,1,3.563,3.572A3.569,3.569,0,0,1,869.007,469.778ZM1027.38,472.3a3.567,3.567,0,1,1,2.517,1.042A3.568,3.568,0,0,1,1027.38,472.3Zm-34.965,0a3.567,3.567,0,1,1,2.517,1.042A3.568,3.568,0,0,1,992.415,472.3Zm-52.448,0a3.567,3.567,0,1,1,2.517,1.042A3.569,3.569,0,0,1,939.967,472.3Zm-87.412,0a3.567,3.567,0,1,1,2.517,1.042A3.568,3.568,0,0,1,852.556,472.3Zm104.9,0a3.568,3.568,0,1,1,2.516,1.041A3.568,3.568,0,0,1,957.451,472.3Z" fill="#fff"/>
  </g>
</svg>
